<svg width="13" height="13" viewBox="0 0 13 13" fill="none" xmlns="http://www.w3.org/2000/svg">
<g clip-path="url(#clip0_3_2)">
<path d="M12.4583 0.541656V4.87499H11.375V4.33332H10.8333V3.79166H10.2917V4.33332H9.75V4.87499H9.20833V5.41666H8.66667V5.95832H8.125V6.49999H7.58333V7.04166H7.04167V7.58332H6.5V8.12499H5.95833V8.66666H5.41667V9.20832H4.875V9.74999H4.33333V9.20832H3.79167V8.66666H3.25V8.12499H3.79167V7.58332H4.33333V7.04166H4.875V6.49999H5.41667V5.95832H5.95833V5.41666H6.5V4.87499H7.04167V4.33332H7.58333V3.79166H8.125V3.24999H8.66667V2.70832H9.20833V2.16666H8.66667V1.62499H8.125V0.541656H12.4583Z" fill="black"/>
<path d="M10.8334 8.12499V11.9167H10.2917V12.4583H1.08341V11.9167H0.541748V2.70832H1.08341V2.16666H5.95841V3.79166H2.16675V10.8333H9.20841V8.12499H10.8334Z" fill="black"/>
</g>
<defs>
<clipPath id="clip0_3_2">
<rect width="13" height="13" fill="white"/>
</clipPath>
</defs>
</svg>
