<svg width="24" height="24" viewBox="0 0 24 24" fill="none" xmlns="http://www.w3.org/2000/svg">
<path d="M20 6.52898V19.501C20 20.8817 18.8807 22.001 17.5 22.001H6.5C5.11929 22.001 4 20.8817 4 19.501V4.501C4 3.12029 5.11929 2.001 6.5 2.001H15.472C15.6048 1.99258 15.7429 2.03684 15.8536 2.14745L19.8536 6.14745C19.9642 6.25806 20.0084 6.39623 20 6.52898ZM15 3.001H6.5C5.67157 3.001 5 3.67258 5 4.501V19.501C5 20.3294 5.67157 21.001 6.5 21.001H17.5C18.3284 21.001 19 20.3294 19 19.501V7.001H15.5C15.2239 7.001 15 6.77714 15 6.501V3.001ZM16 3.70811V6.001H18.2929L16 3.70811ZM8.5 10C8.22386 10 8 9.77614 8 9.5C8 9.22386 8.22386 9 8.5 9H15.5C15.7761 9 16 9.22386 16 9.5C16 9.77614 15.7761 10 15.5 10H8.5ZM8.5 13C8.22386 13 8 12.7761 8 12.5C8 12.2239 8.22386 12 8.5 12H15.5C15.7761 12 16 12.2239 16 12.5C16 12.7761 15.7761 13 15.5 13H8.5ZM8.5 16C8.22386 16 8 15.7761 8 15.5C8 15.2239 8.22386 15 8.5 15H13.5C13.7761 15 14 15.2239 14 15.5C14 15.7761 13.7761 16 13.5 16H8.5Z" fill="black"/>
</svg>
